<svg width="20" height="22" viewBox="0 0 20 22" fill="none" xmlns="http://www.w3.org/2000/svg">
<path d="M13.6262 9.25V4.75C13.6262 3.75544 13.2311 2.80161 12.5279 2.09835C11.8246 1.39509 10.8708 1 9.87621 1C8.88164 1 7.92782 1.39509 7.22456 2.09835C6.52129 2.80161 6.12621 3.75544 6.12621 4.75V9.25M17.4822 7.257L18.7452 19.257C18.8152 19.922 18.2952 20.5 17.6262 20.5H2.12621C1.96841 20.5002 1.81235 20.4671 1.66815 20.4031C1.52396 20.339 1.39485 20.2453 1.28923 20.1281C1.1836 20.0108 1.10382 19.8727 1.05506 19.7226C1.0063 19.5726 0.989655 19.4139 1.00621 19.257L2.27021 7.257C2.29936 6.98056 2.42983 6.7247 2.63646 6.53876C2.84308 6.35281 3.11123 6.24995 3.38921 6.25H16.3632C16.9392 6.25 17.4222 6.685 17.4822 7.257ZM6.50121 9.25C6.50121 9.34946 6.4617 9.44484 6.39137 9.51517C6.32104 9.58549 6.22566 9.625 6.12621 9.625C6.02675 9.625 5.93137 9.58549 5.86104 9.51517C5.79071 9.44484 5.75121 9.34946 5.75121 9.25C5.75121 9.15054 5.79071 9.05516 5.86104 8.98483C5.93137 8.91451 6.02675 8.875 6.12621 8.875C6.22566 8.875 6.32104 8.91451 6.39137 8.98483C6.4617 9.05516 6.50121 9.15054 6.50121 9.25ZM14.0012 9.25C14.0012 9.34946 13.9617 9.44484 13.8914 9.51517C13.821 9.58549 13.7257 9.625 13.6262 9.625C13.5267 9.625 13.4314 9.58549 13.361 9.51517C13.2907 9.44484 13.2512 9.34946 13.2512 9.25C13.2512 9.15054 13.2907 9.05516 13.361 8.98483C13.4314 8.91451 13.5267 8.875 13.6262 8.875C13.7257 8.875 13.821 8.91451 13.8914 8.98483C13.9617 9.05516 14.0012 9.15054 14.0012 9.25Z" stroke="white" stroke-width="2" stroke-linecap="round" stroke-linejoin="round"/>
</svg>
